<?xml version="1.0" encoding="UTF-8"?>
<svg width="123px" height="30px" viewBox="0 0 123 30" version="1.1" xmlns="http://www.w3.org/2000/svg" xmlns:xlink="http://www.w3.org/1999/xlink">
    <title>44A95169-04B5-4E88-AE9F-F8E55E66EFAE</title>
    <defs>
        <linearGradient x1="25.5099086%" y1="125.166667%" x2="119.664382%" y2="28.4166667%" id="linearGradient-1">
            <stop stop-color="#42E5D5" offset="0%"></stop>
            <stop stop-color="#33B3AA" offset="100%"></stop>
        </linearGradient>
        <linearGradient x1="-22.725643%" y1="76.1666667%" x2="71.42883%" y2="-22.4166667%" id="linearGradient-2">
            <stop stop-color="#42E5D5" offset="0%"></stop>
            <stop stop-color="#33B3AA" offset="100%"></stop>
        </linearGradient>
        <linearGradient x1="121.401854%" y1="21.4166667%" x2="23.4966466%" y2="120.027778%" id="linearGradient-3">
            <stop stop-color="#42E5D5" offset="0%"></stop>
            <stop stop-color="#33B3AA" offset="100%"></stop>
        </linearGradient>
        <linearGradient x1="40.99905%" y1="98.3876812%" x2="59.5092574%" y2="-1.10507246%" id="linearGradient-4">
            <stop stop-color="#FFD178" offset="40%"></stop>
            <stop stop-color="#33B3AA" stop-opacity="0" offset="100%"></stop>
        </linearGradient>
        <linearGradient x1="78.9854572%" y1="-22.0555556%" x2="-20.7675388%" y2="77.7777778%" id="linearGradient-5">
            <stop stop-color="#42E5D5" offset="0%"></stop>
            <stop stop-color="#33B3AA" offset="100%"></stop>
        </linearGradient>
        <linearGradient x1="-0.398550725%" y1="59.5120107%" x2="99.076087%" y2="40.7418545%" id="linearGradient-6">
            <stop stop-color="#FFD178" offset="40%"></stop>
            <stop stop-color="#33B3AA" stop-opacity="0" offset="100%"></stop>
        </linearGradient>
    </defs>
    <g id="Style-Guide" stroke="none" stroke-width="1" fill="none" fill-rule="evenodd">
        <g id="Iconography" transform="translate(-757.000000, -906.000000)">
            <g id="Logo" transform="translate(757.000000, 906.000000)">
                <path d="M46.1176494,6.18688525 L46.1176494,8.64590164 C46.1176494,10.7065574 45.0493625,12.0245902 42.8637849,12.0245902 L41.4279681,12.0245902 C39.2423904,12.0245902 38.179004,10.7065574 38.179004,8.64590164 L38.179004,3.86557377 C38.179004,1.80491803 39.2423904,0.491803279 41.4279681,0.491803279 L42.8637849,0.491803279 C44.9170518,0.491803279 46.0000398,1.66229508 46.0980478,3.59016393 C46.1167712,3.677089 46.0917232,3.767697 46.0310514,3.83251557 C45.9703795,3.89733414 45.8818366,3.92808065 45.7942231,3.9147541 L44.5936255,3.9147541 C44.5061851,3.9206245 44.4204777,3.88831651 44.3585099,3.82612564 C44.296542,3.76393478 44.2643499,3.67791897 44.2701992,3.59016393 C44.206494,2.53770492 43.7801594,2.16393443 42.8784861,2.16393443 L41.4279681,2.16393443 C40.4478884,2.16393443 40.0215538,2.61639344 40.0215538,3.86557377 L40.0215538,8.63606557 C40.0215538,9.90491803 40.4380876,10.342623 41.4279681,10.342623 L42.8637849,10.342623 C43.8438645,10.342623 44.2701992,9.90491803 44.2701992,8.63606557 L44.2701992,7.42131148 L43.025498,7.42131148 C42.8147809,7.42131148 42.7216733,7.30819672 42.7216733,7.09672131 L42.7216733,6.18688525 C42.7216733,5.97540984 42.8147809,5.86229508 43.025498,5.86229508 L45.7942231,5.86229508 C45.8825444,5.85288304 45.9703718,5.88404335 46.0331755,5.947073 C46.0959791,6.01010265 46.1270277,6.09824617 46.1176494,6.18688525 Z" id="Path" fill="#242D2B"></path>
                <path d="M50.2241833,2.16393443 L50.2241833,5.40983607 L53.6544622,5.40983607 C53.7207367,5.39967601 53.7878735,5.42177356 53.8352802,5.46935091 C53.882687,5.51692826 53.9047053,5.58430665 53.8945817,5.65081967 L53.8945817,6.83606557 C53.9042798,6.90290852 53.8823202,6.97046221 53.835211,7.01870575 C53.7881019,7.06694928 53.7212477,7.090348 53.6544622,7.08196721 L50.2241833,7.08196721 L50.2241833,10.1803279 L54.8158566,10.1803279 C54.8821311,10.1701678 54.9492679,10.1922654 54.9966747,10.2398427 C55.0440814,10.2874201 55.0660997,10.3547985 55.0559761,10.4213115 L55.0559761,11.6065574 C55.0656742,11.6734003 55.0437146,11.740954 54.9966054,11.7891975 C54.9494963,11.8374411 54.8826422,11.8608398 54.8158566,11.852459 L48.621753,11.852459 C48.5549674,11.8608398 48.4881133,11.8374411 48.4410041,11.7891975 C48.393895,11.740954 48.3719354,11.6734003 48.3816335,11.6065574 L48.3816335,0.737704918 C48.3719354,0.670861971 48.393895,0.60330828 48.4410041,0.555064745 C48.4881133,0.50682121 48.5549674,0.483422494 48.621753,0.491803279 L54.7325498,0.491803279 C54.8001205,0.481706455 54.8684613,0.504343822 54.9167677,0.55282407 C54.9650741,0.601304317 54.9876303,0.669891033 54.9775697,0.737704918 L54.9775697,1.91803279 C54.9876303,1.98584667 54.9650741,2.05443339 54.9167677,2.10291364 C54.8684613,2.15139388 54.8001205,2.17403125 54.7325498,2.16393443 L50.2241833,2.16393443 Z" id="Path" fill="#242D2B"></path>
                <path d="M58.9223904,2.16393443 L58.9223904,5.40983607 L62.3526693,5.40983607 C62.4189438,5.39967601 62.4860806,5.42177356 62.5334874,5.46935091 C62.5808942,5.51692826 62.6029125,5.58430665 62.5927888,5.65081967 L62.5927888,6.83606557 C62.6024869,6.90290852 62.5805273,6.97046221 62.5334182,7.01870575 C62.4863091,7.06694928 62.4194549,7.090348 62.3526693,7.08196721 L58.9223904,7.08196721 L58.9223904,10.1803279 L63.5140637,10.1803279 C63.580667,10.1705949 63.6479785,10.1926335 63.696049,10.2399122 C63.7441196,10.2871908 63.7674344,10.3542856 63.7590837,10.4213115 L63.7590837,11.6065574 C63.7691443,11.6743713 63.7465881,11.742958 63.6982817,11.7914382 C63.6499753,11.8399185 63.5816345,11.8625558 63.5140637,11.852459 L57.3346614,11.852459 C57.2678758,11.8608398 57.2010216,11.8374411 57.1539125,11.7891975 C57.1068033,11.740954 57.0848437,11.6734003 57.0945418,11.6065574 L57.0945418,0.737704918 C57.0848437,0.670861971 57.1068033,0.60330828 57.1539125,0.555064745 C57.2010216,0.50682121 57.2678758,0.483422494 57.3346614,0.491803279 L63.4503586,0.491803279 C63.5171441,0.483422494 63.5839983,0.50682121 63.6311074,0.555064745 C63.6782166,0.60330828 63.7001762,0.670861971 63.6904781,0.737704918 L63.6904781,1.91803279 C63.7001762,1.98487573 63.6782166,2.05242942 63.6311074,2.10067296 C63.5839983,2.14891649 63.5171441,2.17231521 63.4503586,2.16393443 L58.9223904,2.16393443 Z" id="Path" fill="#242D2B"></path>
                <path d="M73.652988,11.852459 L72.0701594,11.852459 C71.8924631,11.8665893 71.7225935,11.7765601 71.6340239,11.6213115 L68.5124701,6.70327869 L67.625498,7.80983607 L67.625498,11.6065574 C67.6351961,11.6734003 67.6132365,11.740954 67.5661274,11.7891975 C67.5190182,11.8374411 67.4521641,11.8608398 67.3853785,11.852459 L66.0279681,11.852459 C65.9603974,11.8625558 65.8920566,11.8399185 65.8437502,11.7914382 C65.7954438,11.742958 65.7728876,11.6743713 65.7829482,11.6065574 L65.7829482,0.737704918 C65.7728876,0.669891033 65.7954438,0.601304317 65.8437502,0.55282407 C65.8920566,0.504343822 65.9603974,0.481706455 66.0279681,0.491803279 L67.3853785,0.491803279 C67.4521641,0.483422494 67.5190182,0.50682121 67.5661274,0.555064745 C67.6132365,0.60330828 67.6351961,0.670861971 67.625498,0.737704918 L67.625498,5.22786885 L71.0557769,0.752459016 C71.138128,0.597015468 71.2969881,0.497605054 71.4723108,0.491803279 L73.0159363,0.491803279 C73.197251,0.491803279 73.2609562,0.68852459 73.099243,0.895081967 L69.7669721,5.1147541 L73.7460956,11.4590164 C73.8294024,11.5918033 73.8637052,11.852459 73.652988,11.852459 Z" id="Path" fill="#242D2B"></path>
                <path d="M46.6125896,29.9213115 L45.3041833,29.9213115 C45.1424701,29.9213115 45.0444622,29.7885246 44.9954582,29.6114754 L44.5054183,27.8557377 L40.516494,27.8557377 L40.0264542,29.6114754 C39.9774502,29.7885246 39.8794422,29.9213115 39.7177291,29.9213115 L38.3995219,29.9213115 C38.3236208,29.9243135 38.2515233,29.8878995 38.2087013,29.8249346 C38.1658793,29.7619696 38.1583618,29.6813186 38.1888048,29.6114754 L41.3593625,18.8213115 C41.3886198,18.6745026 41.5141342,18.5668219 41.6631873,18.5606557 L43.3293227,18.5606557 C43.4802332,18.5645845 43.6083638,18.6727648 43.6380478,18.8213115 L46.8233068,29.6114754 C46.8537497,29.6813186 46.8462322,29.7619696 46.8034102,29.8249346 C46.7605883,29.8878995 46.6884908,29.9243135 46.6125896,29.9213115 Z M44.0398805,26.2672131 L42.5060558,20.857377 L40.9722311,26.2672131 L44.0398805,26.2672131 Z" id="Shape" fill="#242D2B" fill-rule="nonzero"></path>
                <path d="M56.3153785,21.742623 L56.3153785,26.7245902 C56.3153785,28.6918033 55.2470916,29.9213115 53.1154183,29.9213115 L48.9402789,29.9213115 C48.8734933,29.9296923 48.8066392,29.9062935 48.75953,29.85805 C48.7124209,29.8098065 48.6904613,29.7422528 48.7001594,29.6754098 L48.7001594,18.8016393 C48.6900357,18.7351263 48.7120541,18.6677479 48.7594608,18.6201706 C48.8068676,18.5725932 48.8740044,18.5504957 48.9402789,18.5606557 L53.1154183,18.5606557 C55.2470916,18.5606557 56.3153785,19.7754098 56.3153785,21.742623 Z M54.4728287,21.742623 C54.4728287,20.5868852 54.0513944,20.2327869 53.1154183,20.2327869 L50.5427092,20.2327869 L50.5427092,28.2491803 L53.1154183,28.2491803 C54.0513944,28.2491803 54.4728287,27.8901639 54.4728287,26.7245902 L54.4728287,21.742623 Z" id="Shape" fill="#242D2B" fill-rule="nonzero"></path>
                <path d="M58.0305179,18.5606557 L59.3536255,18.5606557 C59.5153386,18.5606557 59.6133466,18.6885246 59.6623506,18.8704918 L62.1125498,27.6491803 L64.6019522,18.8704918 C64.6509562,18.6885246 64.7489641,18.5606557 64.9106773,18.5606557 L66.2190837,18.5606557 C66.2949848,18.5576537 66.3670823,18.5940677 66.4099043,18.6570326 C66.4527263,18.7199976 66.4602437,18.8006486 66.4298008,18.8704918 L63.2445418,29.6606557 C63.2148578,29.8092024 63.0867272,29.9173827 62.9358167,29.9213115 L61.2696813,29.9213115 C61.1206282,29.9151453 60.9951139,29.8074647 60.9658566,29.6606557 L57.8247012,18.8704918 C57.785498,18.6885246 57.8688048,18.5606557 58.0305179,18.5606557 Z" id="Path" fill="#242D2B"></path>
                <path d="M70.1884064,20.2327869 L70.1884064,23.4786885 L73.6186853,23.4786885 C73.6852885,23.4689555 73.7526,23.4909942 73.8006705,23.5382728 C73.8487411,23.5855515 73.8720559,23.6526462 73.8637052,23.7196721 L73.8637052,24.904918 C73.8737658,24.9727319 73.8512096,25.0413186 73.8029032,25.0897989 C73.7545968,25.1382791 73.686256,25.1609165 73.6186853,25.1508197 L70.1884064,25.1508197 L70.1884064,28.2491803 L74.7800797,28.2491803 C74.846683,28.2394473 74.9139944,28.261486 74.962065,28.3087646 C75.0101355,28.3560433 75.0334503,28.423138 75.0250996,28.4901639 L75.0250996,29.6754098 C75.0351602,29.7432237 75.012604,29.8118104 74.9642976,29.8602907 C74.9159912,29.9087709 74.8476504,29.9314083 74.7800797,29.9213115 L68.6055777,29.9213115 C68.538007,29.9314083 68.4696662,29.9087709 68.4213598,29.8602907 C68.3730533,29.8118104 68.3504971,29.7432237 68.3605578,29.6754098 L68.3605578,18.8016393 C68.352207,18.7346134 68.3755219,18.6675187 68.4235924,18.62024 C68.471663,18.5729614 68.5389744,18.5509227 68.6055777,18.5606557 L74.7163745,18.5606557 C74.782649,18.5504957 74.8497858,18.5725932 74.8971926,18.6201706 C74.9445993,18.6677479 74.9666176,18.7351263 74.956494,18.8016393 L74.956494,19.9868852 C74.9661921,20.0537282 74.9442325,20.1212819 74.8971234,20.1695254 C74.8500142,20.217769 74.7831601,20.2411677 74.7163745,20.2327869 L70.1884064,20.2327869 Z" id="Path" fill="#242D2B"></path>
                <path d="M84.8552988,18.8016393 L84.8552988,29.6754098 C84.8649969,29.7422528 84.8430373,29.8098065 84.7959282,29.85805 C84.748819,29.9062935 84.6819649,29.9296923 84.6151793,29.9213115 L82.7677291,29.9213115 C82.6425509,29.9287368 82.5264558,29.8556693 82.4786056,29.7393443 L78.8964143,21.6098361 L78.8964143,29.6754098 C78.906475,29.7432237 78.8839188,29.8118104 78.8356124,29.8602907 C78.7873059,29.9087709 78.7189651,29.9314083 78.6513944,29.9213115 L77.2939841,29.9213115 C77.2264133,29.9314083 77.1580725,29.9087709 77.1097661,29.8602907 C77.0614597,29.8118104 77.0389035,29.7432237 77.0489641,29.6754098 L77.0489641,18.8016393 C77.0406134,18.7346134 77.0639282,18.6675187 77.1119988,18.62024 C77.1600693,18.5729614 77.2273808,18.5509227 77.2939841,18.5606557 L79.1365339,18.5606557 C79.2605006,18.5524424 79.3762326,18.6233126 79.4256574,18.7377049 L83.0176494,26.852459 L83.0176494,18.8016393 C83.0075258,18.7351263 83.0295441,18.6677479 83.0769508,18.6201706 C83.1243576,18.5725932 83.1914944,18.5504957 83.2577689,18.5606557 L84.6200797,18.5606557 C84.6855711,18.552224 84.751214,18.5750885 84.7974192,18.622426 C84.8436244,18.6697635 84.8650487,18.7361 84.8552988,18.8016393 L84.8552988,18.8016393 Z" id="Path" fill="#242D2B"></path>
                <path d="M93.960239,18.8016393 L93.960239,19.9868852 C93.9702997,20.0546991 93.9477435,20.1232858 93.8994371,20.1717661 C93.8511306,20.2202463 93.7827899,20.2428837 93.7152191,20.2327869 L91.3581275,20.2327869 L91.3581275,29.6754098 C91.3681881,29.7432237 91.3456319,29.8118104 91.2973255,29.8602907 C91.2490191,29.9087709 91.1806783,29.9314083 91.1131076,29.9213115 L89.7556972,29.9213115 C89.6889116,29.9296923 89.6220575,29.9062935 89.5749483,29.85805 C89.5278392,29.8098065 89.5058796,29.7422528 89.5155777,29.6754098 L89.5155777,20.2327869 L87.1192829,20.2327869 C87.0524973,20.2411677 86.9856431,20.217769 86.938534,20.1695254 C86.8914249,20.1212819 86.8694653,20.0537282 86.8791633,19.9868852 L86.8791633,18.8016393 C86.8690397,18.7351263 86.891058,18.6677479 86.9384648,18.6201706 C86.9858715,18.5725932 87.0530083,18.5504957 87.1192829,18.5606557 L93.7152191,18.5606557 C93.7818224,18.5509227 93.8491339,18.5729614 93.8972044,18.62024 C93.945275,18.6675187 93.9685898,18.7346134 93.960239,18.8016393 Z" id="Path" fill="#242D2B"></path>
                <path d="M103.579721,18.8704918 L103.579721,26.6262295 C103.579721,28.7360656 102.531036,30 100.330757,30 L98.7626295,30 C96.5476494,30 95.4940637,28.7360656 95.4940637,26.6262295 L95.4940637,18.8704918 C95.4872801,18.7828501 95.5204505,18.696847 95.5842619,18.6366293 C95.6480733,18.5764116 95.7356452,18.5484723 95.8223904,18.5606557 L97.0278884,18.5606557 C97.1123175,18.5511489 97.1964685,18.5807227 97.2565435,18.6410139 C97.3166185,18.7013051 97.3460863,18.7857589 97.3366135,18.8704918 L97.3366135,26.6262295 C97.3366135,27.8557377 97.7874502,28.3278689 98.7577291,28.3278689 L100.325857,28.3278689 C101.305936,28.3278689 101.732271,27.8360656 101.732271,26.6262295 L101.732271,18.8704918 C101.723857,18.7833292 101.755803,18.6971181 101.81892,18.6366527 C101.882038,18.5761873 101.969332,18.548169 102.055697,18.5606557 L103.270996,18.5606557 C103.355425,18.5511489 103.439576,18.5807227 103.499651,18.6410139 C103.559726,18.7013051 103.589194,18.7857589 103.579721,18.8704918 Z" id="Path" fill="#242D2B"></path>
                <path d="M113.605936,29.9213115 L112.312231,29.9213115 C112.147516,29.9311965 111.995957,29.8311276 111.939801,29.6754098 L110.420677,26.1540984 L107.847968,26.1540984 L107.847968,29.6754098 C107.857666,29.7422528 107.835707,29.8098065 107.788597,29.85805 C107.741488,29.9062935 107.674634,29.9296923 107.607849,29.9213115 L106.250438,29.9213115 C106.182868,29.9314083 106.114527,29.9087709 106.06622,29.8602907 C106.017914,29.8118104 105.995358,29.7432237 106.005418,29.6754098 L106.005418,18.8016393 C105.997068,18.7346134 106.020382,18.6675187 106.068453,18.62024 C106.116524,18.5729614 106.183835,18.5509227 106.250438,18.5606557 L110.293267,18.5606557 C112.473944,18.5606557 113.542231,19.7754098 113.542231,21.7918033 L113.542231,22.9081967 C113.542231,24.2213115 113.086494,25.195082 112.165219,25.7311475 L113.850956,29.547541 C113.944064,29.7737705 113.850956,29.9213115 113.605936,29.9213115 Z M107.847968,24.4819672 L110.298167,24.4819672 C111.278247,24.4819672 111.704582,24.1278689 111.704582,22.9081967 L111.704582,21.7918033 C111.704582,20.5868852 111.283147,20.2327869 110.298167,20.2327869 L107.847968,20.2327869 L107.847968,24.4819672 Z" id="Shape" fill="#242D2B" fill-rule="nonzero"></path>
                <path d="M117.761474,20.2327869 L117.761474,23.4786885 L121.191753,23.4786885 C121.258028,23.4685285 121.325164,23.490626 121.372571,23.5382034 C121.419978,23.5857807 121.441996,23.6531591 121.431873,23.7196721 L121.431873,24.904918 C121.441571,24.971761 121.419611,25.0393147 121.372502,25.0875582 C121.325393,25.1358017 121.258539,25.1592005 121.191753,25.1508197 L117.761474,25.1508197 L117.761474,28.2491803 L122.353147,28.2491803 C122.419751,28.2394473 122.487062,28.261486 122.535133,28.3087646 C122.583203,28.3560433 122.606518,28.423138 122.598167,28.4901639 L122.598167,29.6754098 C122.608228,29.7432237 122.585672,29.8118104 122.537365,29.8602907 C122.489059,29.9087709 122.420718,29.9314083 122.353147,29.9213115 L116.163944,29.9213115 C116.096373,29.9314083 116.028033,29.9087709 115.979726,29.8602907 C115.93142,29.8118104 115.908864,29.7432237 115.918924,29.6754098 L115.918924,18.8016393 C115.910574,18.7346134 115.933888,18.6675187 115.981959,18.62024 C116.030029,18.5729614 116.097341,18.5509227 116.163944,18.5606557 L122.274741,18.5606557 C122.341016,18.5504957 122.408152,18.5725932 122.455559,18.6201706 C122.502966,18.6677479 122.524984,18.7351263 122.514861,18.8016393 L122.514861,19.9868852 C122.524559,20.0537282 122.502599,20.1212819 122.45549,20.1695254 C122.408381,20.217769 122.341527,20.2411677 122.274741,20.2327869 L117.761474,20.2327869 Z" id="Path" fill="#242D2B"></path>
                <polygon id="Path" fill="url(#linearGradient-1)" style="mix-blend-mode: multiply;" points="1.17609562 30 7.05657371 30 7.05657371 24.0983607"></polygon>
                <polygon id="Path" fill="url(#linearGradient-2)" style="mix-blend-mode: multiply;" points="0 28.8196721 0 22.9180328 5.88047809 22.9180328"></polygon>
                <polygon id="Path" fill="url(#linearGradient-3)" style="mix-blend-mode: multiply;" points="29.4023904 1.67213115 29.4023904 17.0163934 27.0501992 19.3770492 11.7609562 19.3770492"></polygon>
                <polygon id="Path" fill="url(#linearGradient-4)" points="17.6414343 28.8196721 17.6414343 13.4754098 29.4023904 1.67213115 29.4023904 17.0163934"></polygon>
                <polygon id="Path" fill="url(#linearGradient-5)" style="mix-blend-mode: multiply;" points="28.2262948 0.496721311 12.9370518 0.491803279 10.5848606 2.85245902 10.5848606 18.1967213"></polygon>
                <polygon id="Path" fill="url(#linearGradient-6)" points="1.17609562 12.295082 10.5848606 2.85245902 12.9370518 0.491803279 28.2262948 0.491803279 16.4653386 12.295082"></polygon>
            </g>
        </g>
    </g>
</svg>