<svg width="627px" height="394px" viewBox="0 0 627 394" version="1.1" xmlns="http://www.w3.org/2000/svg">
  <title>OBJECTS Copy</title>
  <desc>Created with Sketch.</desc>
  <g id="Ariba---Desktop" stroke="none" stroke-width="1" fill="none" fill-rule="evenodd">
    <g id="500_error-" transform="translate(-534.000000, -315.000000)">
      <g id="OBJECTS-Copy" transform="translate(535.000000, 315.000000)">
        <path
          d="M397.24,348.42 C395.03,348.61 392.78,348.77 390.52,348.89 C388.93,348.97 387.32,349.04 385.71,349.08 C384.1,349.12 382.24,349.17 380.49,349.17 L375.85,349.17 C372.27,349.12 368.79,349.03 365.39,348.89 C260,344.75 240.11,299 168.74,276.65 C100.74,255.32 6.93,116.48 53.6,39.34 C57.8967016,32.241985 63.2440542,25.8359511 69.46,20.34 C141.19,-43.33 239,63.34 274,69 C309,74.66 424.41,-11.38 505.2,31.59 C529.59,44.59 545.96,78.79 551.38,120.22 C563.34,211.42 522.3,337.51 397.24,348.42 Z"
          id="Path" fill="#BABECD" fill-rule="nonzero"></path>
        <path d="M272.16,357.63 C251.61,377.56 233.86,346.73 241.64,336.77 C249.42,326.81 282.22,347.88 272.16,357.63 Z"
              id="Path" fill="#BABECD" fill-rule="nonzero"></path>
        <path
          d="M274.93,378.75 C274.4941,379.57903 273.967544,380.357125 273.36,381.07 C268.27,386.87 260.85,381.5 259.53,376.81 C259.249846,375.955715 259.249846,375.034285 259.53,374.18 C261.42,369 277.8,373.37 274.93,378.75 Z"
          id="Path" fill="#BABECD" fill-rule="nonzero"></path>
        <path
          d="M270.15,10 C295.26,6.06 308.15,43.63 283.64,44.25 C259.13,44.87 249.39,32.25 251.64,22.04 C253.89,11.83 270.15,10 270.15,10 Z"
          id="Path" fill="#BABECD" fill-rule="nonzero"></path>
        <path
          d="M397.24,348.42 C395.03,348.61 392.78,348.77 390.52,348.89 C388.93,348.97 387.32,349.04 385.71,349.08 C384.1,349.12 382.24,349.17 380.49,349.17 L375.85,349.17 C372.27,349.12 368.79,349.03 365.39,348.89 C260,344.75 240.11,299 168.74,276.65 C100.74,255.32 6.93,116.48 53.6,39.34 C49.81,62.53 44.15,129.57 91.36,185.57 C149.48,254.52 287.1,298.63 310.14,299.3 C333.18,299.97 307.55,270.96 388.14,250.14 C472.2,228.41 440.29,262.73 452.75,282.91 C465.21,303.09 518.45,243 527.32,173.73 C530.59,148.15 539.32,130.05 551.38,120.22 C563.34,211.42 522.3,337.51 397.24,348.42 Z"
          id="Path" fill="#767F9E" fill-rule="nonzero"></path>
        <path
          d="M143.54,301.33 C142.2,309.98 138.96,323.86 136.11,334.41 C134.33,340.99 132.7,346.27 131.76,348.19 C131.53,348.64 131.35,348.91 131.22,348.96 C129.8,349.45 129.45,349.13 129.06,347.45 L129.06,347.45 C128.95,347.01 128.85,346.45 128.72,345.83 C128.59,345.21 128.5,344.74 128.36,344.08 C127.45,339.84 126.64,315.18 126.54,311.69 C126.54,311.43 126.54,311.29 126.54,311.29 C126.54,311.29 120.09,307.29 115.4,303.63 C113.902772,302.53061 112.531171,301.269676 111.31,299.87 C110.780711,299.132473 110.387838,298.306085 110.15,297.43 C108.34,291.55 109.02,279.87 112.55,278.8 C112.55,278.8 134.63,282.13 143.89,293.33 C144.42,294 144.22,297 143.54,301.33 Z"
          id="Path" fill="#6C7289" fill-rule="nonzero"></path>
        <path
          d="M143.54,301.33 C142.2,309.98 138.96,323.86 136.11,334.41 C136.03,329.41 135.62,321 133.7,317.3 C132.38,314.75 129.36,312.92 126.54,311.69 C126.54,311.43 126.54,311.29 126.54,311.29 C126.54,311.29 120.09,307.29 115.4,303.63 L110.15,297.43 C108.34,291.55 109.02,279.87 112.55,278.8 C112.55,278.8 134.63,282.13 143.89,293.33 C144.42,294 144.22,297 143.54,301.33 Z"
          id="Path" fill="#20294C" fill-rule="nonzero"></path>
        <path
          d="M149.42,326.78 C149.03,327.89 148.61,328.47 148.13,328.31 C147.494338,327.937597 146.988233,327.379136 146.68,326.71 L146.68,326.71 C143.19,320.85 138.17,301.32 138.17,301.32 C138.17,301.32 123.17,309.11 112.95,307.44 C105.55,306.24 102.38,298.44 101.2,294.27 C101.417979,294.268534 101.635436,294.248461 101.85,294.21 C104.15,293.85 109.64,287.58 112.97,283.01 C134.62,282.16 150.12,286.65 151.35,290.43 C152.42,293.72 151.73,320.07 149.42,326.78 Z"
          id="Path" fill="#6C7289" fill-rule="nonzero"></path>
        <path
          d="M91.62,239 C91.62,239 91.17,232.82 86.68,232.6 C81.16,229.75 74.93,233.4 73.33,239.23 C71.73,245.06 81.33,256.45 81.96,261.84 C82.59,267.23 80.05,273.84 78.05,279.28 C76.05,284.72 79.83,291.74 87.7,291.74 C95.57,291.74 97.7,279.5 96.11,274.61 C94.52,269.72 90.24,255.21 90.24,255.21 L91.62,239 Z"
          id="Path" fill="#20294C" fill-rule="nonzero"></path>
        <path
          d="M97.1,239.88 L104,228.67 C104,228.67 105.3,211.14 105.87,207.67 C106.52,203.78 105.48,199.99 107.12,197.97 C107.12,197.97 109.3,220.8 109.45,221.76 C109.986586,224.399674 109.986586,227.120326 109.45,229.76 C108.6,233.34 102.45,248.6 102.45,248.6 C102.45,248.6 98.34,241.44 97.1,239.88 Z"
          id="Path" fill="#F49595" fill-rule="nonzero"></path>
        <path
          d="M115.7,278.41 C115.7,278.98 114.58,280.8 112.97,283.01 C109.64,287.58 104.15,293.85 101.85,294.21 C101.635436,294.248461 101.417979,294.268534 101.2,294.27 C98.43,294.33 97.79,291.47 97.2,287.62 L97.14,287.21 C96.43,282.85 89.98,270.48 88.89,269.15 C88.7113145,268.960398 88.4973055,268.807534 88.26,268.7 L88.26,268.7 C86.84,268.06 84.26,268.34 83.12,264.63 C82.12,261.21 83.78,256.35 85.35,252.92 C85.78,251.97 86.2,251.14 86.55,250.47 C87.822478,248.542026 89.3048743,246.761138 90.97,245.16 C93.91,242.16 97.14,239.16 97.14,239.16 C97.14,239.16 102,246 103.49,251.4 C104.98,256.8 107.29,265.4 109.49,268.91 C111.69,272.42 115.7,276.7 115.7,278.41 Z"
          id="Path" fill="#BABECD" fill-rule="nonzero"></path>
        <path
          d="M91.3,252.49 C89.4581671,253.500646 87.2671289,253.65767 85.3,252.92 C85.73,251.97 86.15,251.14 86.5,250.47 C87.772478,248.542026 89.2548743,246.761138 90.92,245.16 C91.0562928,245.189375 91.1900445,245.2295 91.32,245.28 C95.89,246.94 95.23,250.51 91.3,252.49 Z"
          id="Path" fill="#000000" fill-rule="nonzero" opacity="0.25" style="mix-blend-mode: overlay;"></path>
        <path
          d="M123.48,221.9 C123.48,221.9 116.17,226.34 115.39,227.51 C114.61,228.68 112.39,245.02 111.03,246.73 C109.67,248.44 103.63,257.4 101.22,259.81 C98.73,257.63 97.41,250.39 97.95,249.46 C98.49,248.53 104.72,244.09 104.72,244.09 C104.72,244.09 110.48,227.09 112.27,225.02 C114.06,222.95 114.69,222.14 115.39,221.9 C116.09,221.66 123.48,221.9 123.48,221.9 Z"
          id="Path" fill="#FFAEAE" fill-rule="nonzero"></path>
        <path
          d="M85.46,247.22 C85.46,247.22 87.23,250.11 87.98,250.4 C88.73,250.69 91.85,249.79 91.98,248.81 C92.11,247.83 89.98,244.93 89.98,244.65 L85.46,247.22 Z"
          id="Path" fill="#F49595" fill-rule="nonzero"></path>
        <path
          d="M91.32,247.06 C91.1668717,247.21858 90.9831679,247.344451 90.78,247.43 C89.2441196,247.952445 87.615666,248.146633 86,248 C85.3971395,247.973243 84.7962211,247.913151 84.2,247.82 C82.77,247.6 81.65,247.21 81.4,246.72 C80.8,245.5 85.98,241.35 87.75,234.95 C89.3930517,236.0744 90.655519,237.671665 91.37,239.53 C92.6,242.56 92.57,245.82 91.32,247.06 Z"
          id="Path" fill="#FFAEAE" fill-rule="nonzero"></path>
        <path
          d="M138.37,363.39 C138.37,364.73 126.37,358.39 126.52,356.95 C126.67,355.51 129.06,347.45 129.06,347.45 L129.06,347.45 C129.45,349.13 129.8,349.45 131.22,348.96 C131.35,348.96 131.53,348.64 131.76,348.19 C131.76,348.19 138.37,362 138.37,363.39 Z"
          id="Path" fill="#20294C" fill-rule="nonzero"></path>
        <path
          d="M155.92,344.39 C154.67,345.12 146.37,337.65 145.85,336.39 C145.33,335.13 146.68,326.7 146.68,326.7 L146.68,326.7 C146.988233,327.369136 147.494338,327.927597 148.13,328.3 C148.61,328.46 149.03,327.88 149.42,326.77 C150.94,330.16 157,343.76 155.92,344.39 Z"
          id="Path" fill="#20294C" fill-rule="nonzero"></path>
        <path
          d="M99.9,273.86 C100.16,277.6 98.44,284.62 97.16,287.62 L97.1,287.21 C96.39,282.85 89.94,270.48 88.85,269.15 C88.6713145,268.960398 88.4573055,268.807534 88.22,268.7 C93.51,269.02 101.22,259.81 101.22,259.81 C104.1,263.54 99.51,268.14 99.9,273.86 Z"
          id="Path" fill="#BABECD" fill-rule="nonzero" opacity="0.25" style="mix-blend-mode: overlay;"></path>
        <path
          d="M91.36,239.57 C91.36,239.57 89.96,238.12 88.71,237.04 C88.39,240.43 82.99,245.14 84.19,247.86 C82.76,247.64 81.64,247.25 81.39,246.76 C80.79,245.54 85.97,241.39 87.74,234.99 C89.3830517,236.1144 90.645519,237.711665 91.36,239.57 Z"
          id="Path" fill="#000000" fill-rule="nonzero" opacity="0.25" style="mix-blend-mode: overlay;"></path>
        <path
          d="M481.9,369.58 C481.9,369.58 477.74,371.34 475.22,377.52 C472.7,383.7 472.32,392.52 473.47,393.64 C474.62,394.76 483.01,385.69 483.78,380.35 C484.243033,377.189516 484.161862,373.973105 483.54,370.84 L481.9,369.58 Z"
          id="Path" fill="#20294C" fill-rule="nonzero"></path>
        <path
          d="M523.58,240.86 C520.46,243.43 519.3,247.94 519.3,247.94 C519.3,247.94 511.9,243.12 511.3,242.18 C510.7,241.24 508.73,224.05 508.19,219.77 C507.65,215.49 509.19,211.59 510.52,213 C511.85,214.41 511.37,219.53 511.3,219.84 C511.23,220.15 515.81,235.26 516.36,235.84 C516.91,236.42 523.58,240.86 523.58,240.86 Z"
          id="Path" fill="#FFAEAE" fill-rule="nonzero"></path>
        <path
          d="M573.73,265.07 C573.695967,265.193158 573.652506,265.313513 573.6,265.43 C560.29,269.43 557.36,269.43 557.36,269.43 C557.36,269.43 556.45,271.11 555.18,273.54 C553.44,276.88 551.02,281.63 549.3,285.4 C548.40983,287.154022 547.718859,289.002203 547.24,290.91 C547.13,291.91 546.04,292.53 544.42,292.8 C540.48,293.43 533.42,291.91 529.81,288.27 C526.39,284.85 525.15,281.89 524.87,279.6 C524.745014,278.616858 524.809509,277.618876 525.06,276.66 C525.476648,275.636534 526.013768,274.666361 526.66,273.77 C528.953076,270.116225 530.325652,265.960753 530.66,261.66 C530.78,260.42 530.85,259.07 530.85,257.6 C519.56,249.89 519.33,247.94 519.33,247.94 C519.33,247.94 520.49,243.43 523.61,240.86 C523.61,240.86 537.61,250.67 538.94,251.13 L542.21,252.26 C544.8,253.15 548.36,254.37 550.95,255.26 C552.26,255.72 553.32,256.1 553.89,256.32 C556.3,257.26 572.18,256.4 572.96,256.32 L572.96,256.32 C573.68,256.35 574.44,262.64 573.73,265.07 Z"
          id="Path" fill="#BABECD" fill-rule="nonzero"></path>
        <path
          d="M550.92,255.29 C549.98,257.29 548.26,259.47 545.45,258.65 C541.91,257.65 541.93,254.04 542.18,252.26 C544.77,253.15 548.33,254.37 550.92,255.29 Z"
          id="Path" fill="#000000" fill-rule="nonzero" opacity="0.25" style="mix-blend-mode: overlay;"></path>
        <path
          d="M605.67,236.52 C603.49,241.62 594.98,247.12 594.98,247.12 C594.98,247.12 584.91,260.4 582.53,262.12 C581.15,263.12 576.99,264.26 573.73,265.03 C574.44,262.6 573.68,256.31 572.94,256.31 C573.25,256.31 579.34,255.47 580.45,254.96 C581.56,254.45 590.52,245.96 590.72,245.62 C590.92,245.28 593.53,237.62 594.05,237.32 C594.57,237.02 595.29,240.22 595.29,240.22 C595.29,240.22 602.25,236.63 605.67,236.52 Z"
          id="Path" fill="#FFAEAE" fill-rule="nonzero"></path>
        <path
          d="M552.83,245.94 C552.818565,246.50161 552.667341,247.051515 552.39,247.54 C552.016832,248.190467 551.595663,248.812191 551.13,249.4 L551.13,249.4 C550.485673,250.212207 549.739551,250.938163 548.91,251.56 C546.72,253.18 544.66,253.35 544.07,252.94 C543.94,252.86 543.83,252.77 543.71,252.68 C540.93,250.49 540.8,246.47 541.02,244.07 C541.02,243.68 541.09,243.35 541.13,243.07 C541.23,242.48 541.3,242.12 541.3,242.12 C542.77,243.71 548.78,241.71 550.3,241.98 C551.46,242.18 552.88,244 552.83,245.94 Z"
          id="Path" fill="#FFAEAE" fill-rule="nonzero"></path>
        <path
          d="M548.92,251.57 C548.65,253.47 549.2,255.57 547.76,256.57 C546.506702,257.442344 544.786744,257.15864 543.88,255.93 C543.44,255.39 543.57,253.79 543.72,252.72 L544.07,252.98 C544.66,253.36 546.72,253.19 548.92,251.57 Z"
          id="Path" fill="#F49595" fill-rule="nonzero"></path>
        <path
          d="M555.87,245.88 C555.05,247.5 552.87,248.44 551.14,249.4 C551.598947,248.809485 552.016605,248.18801 552.39,247.54 C553.72,245.22 551.8,242.23 550.29,241.97 C548.78,241.71 542.78,243.7 541.29,242.12 C541.29,242.12 541.21,242.48 541.12,243.07 C538.55,242.25 533.54,240.07 533.32,235.47 C533.03,229.28 537.25,227.47 542.21,228.84 C547.17,230.21 549.21,235.47 549.21,235.47 C549.21,235.47 554.12,232.67 557.36,235.62 C560.6,238.57 555.7,242.4 555.7,242.4 C555.7,242.4 557.19,243.28 555.87,245.88 Z"
          id="Path" fill="#44435E" fill-rule="nonzero"></path>
        <path
          d="M544.42,292.8 C542.786759,296.815168 540.868535,300.708427 538.68,304.45 C534.27,312.03 493.79,366.39 483.83,374.35 C483.627847,374.516121 483.371395,374.601605 483.11,374.59 C481.73,374.59 479.86,372.59 479.83,372.23 C479.52,368.52 518.68,300.69 519.29,299.64 L519.29,299.64 L492.74,305.76 C492.74,305.76 483.58,323.3 477.29,331.59 C476.73,332.32 476.2,332.98 475.7,333.54 C474.24,335.2 473.04,336.09 472.3,335.76 C472.17,335.7 472.15,335.25 472.22,334.48 C472.93,327.38 481.72,293.03 484.96,288.25 C487.69,284.25 511.14,281.79 521.45,280.25 C522.86,280.03 524.03,279.83 524.86,279.64 C525.14,281.93 526.38,284.89 529.8,288.31 C533.45,291.91 540.48,293.43 544.42,292.8 Z"
          id="Path" fill="#BABECD" fill-rule="nonzero"></path>
        <path
          d="M478.43,340.67 C476.77,343.01 459.86,351.93 461.31,346.85 C462.76,341.77 472.19,334.5 472.19,334.5 L472.19,334.5 C472.12,335.27 472.14,335.72 472.27,335.78 C473.01,336.11 474.21,335.22 475.67,333.56 C476.55,336 479.86,338.67 478.43,340.67 Z"
          id="Path" fill="#20294C" fill-rule="nonzero"></path>
        <path
          d="M544.42,292.8 C542.786759,296.815168 540.868535,300.708427 538.68,304.45 C534.27,312.03 493.79,366.39 483.83,374.35 C483.627847,374.516121 483.371395,374.601605 483.11,374.59 C494.37,356.04 532.11,301.59 528.25,292.94 C526.3019,288.5359 524.032442,284.281084 521.46,280.21 C522.87,279.99 524.04,279.79 524.87,279.6 C525.15,281.89 526.39,284.85 529.81,288.27 C533.45,291.91 540.48,293.43 544.42,292.8 Z"
          id="Path" fill="#20294C" fill-rule="nonzero"></path>
        <path
          d="M519.3,299.63 L492.75,305.75 C492.75,305.75 483.59,323.29 477.3,331.58 C481.69,321.3 489.16,304.06 490.58,302.43 C492.58,300.1 513.77,290.91 516.26,292.94 C518.75,294.97 519.3,299.63 519.3,299.63 Z"
          id="Path" fill="#20294C" fill-rule="nonzero"></path>
        <path
          d="M555.18,273.54 C553.44,276.88 551.02,281.63 549.3,285.4 C540.320043,285.398597 531.891325,281.068827 526.66,273.77 C528.953076,270.116225 530.325652,265.960753 530.66,261.66 C534.89,265.55 544,272.56 555.18,273.54 Z"
          id="Path" fill="#6C7289" fill-rule="nonzero"></path>
        <path
          d="M552.83,245.94 C552.739424,245.100362 552.335988,244.325622 551.7,243.77 C549.89,242.39 545.43,244.68 542.41,244.31 C541.87,244.24 541.41,244.16 541.02,244.08 C541.02,243.69 541.09,243.36 541.13,243.08 C541.23,242.49 541.3,242.13 541.3,242.13 C542.77,243.72 548.78,241.72 550.3,241.99 C551.46,242.18 552.88,244 552.83,245.94 Z"
          id="Path" fill="#000000" fill-rule="nonzero" opacity="0.25" style="mix-blend-mode: overlay;"></path>
        <path d="M53.73,146.49 C53.73,146.49 103.94,108.49 26.89,63.15 C12.71,92.74 49.7,121.22 53.73,146.49 Z"
              id="Path" fill="#5E688D" fill-rule="nonzero"></path>
        <path d="M26.89,63.15 C26.89,63.15 30.3,78.15 44.64,94.15 C58.98,110.15 66.84,120.48 53.73,146.46" id="Path"
              stroke="#FFFFFF" stroke-width="1.22" opacity="0.45" style="mix-blend-mode: overlay;"
              stroke-linecap="round" stroke-linejoin="round"></path>
        <polyline id="Path" stroke="#FFFFFF" stroke-width="1.22" opacity="0.45" style="mix-blend-mode: overlay;"
                  stroke-linecap="round" stroke-linejoin="round" points="25.31 88.18 40.98 89.82 46.9 76.94"></polyline>
        <polyline id="Path" stroke="#FFFFFF" stroke-width="1.22" opacity="0.45" style="mix-blend-mode: overlay;"
                  stroke-linecap="round" stroke-linejoin="round"
                  points="34.25 107.76 53.49 104.82 58.21 87.96"></polyline>
        <polyline id="Path" stroke="#FFFFFF" stroke-width="1.22" opacity="0.45" style="mix-blend-mode: overlay;"
                  stroke-linecap="round" stroke-linejoin="round"
                  points="43.28 122.62 60.32 121.41 67.21 102.44"></polyline>
        <path d="M72,185.57 C72,185.57 108.1,118.14 0.06,107.25 C-0.59,147.1 54.68,159.73 72,185.57 Z" id="Path"
              fill="#20294C" fill-rule="nonzero"></path>
        <path d="M0,107.25 C0,107.25 11.4,122 35.37,132.47 C59.34,142.94 73.24,150.25 71.97,185.57" id="Path"
              stroke="#FFFFFF" stroke-width="1.22" opacity="0.45" style="mix-blend-mode: overlay;"
              stroke-linecap="round" stroke-linejoin="round"></path>
        <polyline id="Path" stroke="#FFFFFF" stroke-width="1.22" opacity="0.45" style="mix-blend-mode: overlay;"
                  stroke-linecap="round" stroke-linejoin="round"
                  points="10.99 135.67 29.12 129.51 29.12 112.3"></polyline>
        <polyline id="Path" stroke="#FFFFFF" stroke-width="1.22" opacity="0.45" style="mix-blend-mode: overlay;"
                  stroke-linecap="round" stroke-linejoin="round"
                  points="30.8 152.74 50.54 139.72 47.19 118.71"></polyline>
        <polyline id="Path" stroke="#FFFFFF" stroke-width="1.22" opacity="0.45" style="mix-blend-mode: overlay;"
                  stroke-linecap="round" stroke-linejoin="round"
                  points="48.32 164.54 66.5 154.56 64.47 130.13"></polyline>
        <path
          d="M411.16,306.41 C410.348018,312.694357 409.009988,318.899472 407.16,324.96 C405.582552,330.156444 403.65823,335.241197 401.4,340.18 C399.9,343.43 398.45,346.18 397.2,348.42 C394.99,348.61 392.74,348.77 390.48,348.89 C388.89,348.97 387.28,349.04 385.67,349.08 C384.06,349.12 382.2,349.17 380.45,349.17 L375.81,349.17 C375.736958,348.937556 375.680154,348.700318 375.64,348.46 C375.64,348.46 375.72,346.79 376.15,343.85 C376.745283,339.98768 377.570076,336.164244 378.62,332.4 C379,331.03 379.43,329.59 379.91,328.09 C380.32,326.81 380.78,325.48 381.27,324.09 C382.27,321.45 383.35,318.67 384.67,315.78 C387.263933,310.048191 390.313725,304.533819 393.79,299.29 C398.729594,291.859517 404.459696,284.986077 410.88,278.79 C412.219572,287.941826 412.313761,297.232898 411.16,306.41 L411.16,306.41 Z"
          id="Path" fill="#5E688D" fill-rule="nonzero"></path>
        <path
          d="M385.71,349.08 C386.3,346.98 387.11,344.41 388.08,341.49 C388.14,341.31 388.19,341.13 388.25,340.95 C389.61,336.86 391.25,332.13 393.02,327.15 C395.02,321.62 397.1,315.78 399.17,310.15 C405.26,293.62 410.92,278.82 410.92,278.82"
          id="Path" stroke="#FFFFFF" stroke-width="1.22" opacity="0.45" style="mix-blend-mode: overlay;"
          stroke-linecap="round" stroke-linejoin="round"></path>
        <polyline id="Path" stroke="#FFFFFF" stroke-width="1.22" opacity="0.45" style="mix-blend-mode: overlay;"
                  stroke-linecap="round" stroke-linejoin="round"
                  points="393.83 299.3 399.18 310.13 411.16 306.41"></polyline>
        <polyline id="Path" stroke="#FFFFFF" stroke-width="1.22" opacity="0.45" style="mix-blend-mode: overlay;"
                  stroke-linecap="round" stroke-linejoin="round"
                  points="384.55 315.58 393.02 327.15 407.2 324.96"></polyline>
        <polyline id="Path" stroke="#FFFFFF" stroke-width="1.22" opacity="0.45" style="mix-blend-mode: overlay;"
                  stroke-linecap="round" stroke-linejoin="round"
                  points="378.66 332.39 388.08 341.49 401.44 340.18"></polyline>
        <path
          d="M390.52,348.89 C388.93,348.97 387.32,349.04 385.71,349.08 C384.1,349.12 382.24,349.17 380.49,349.17 L375.85,349.17 C372.27,349.12 368.79,349.03 365.39,348.89 C363.002604,344.100714 360.957485,339.148318 359.27,334.07 C357.275346,328.108497 355.767077,321.995156 354.76,315.79 C353.309753,306.98237 352.833552,298.04185 353.34,289.13 C360.550847,294.934836 366.942272,301.689563 372.34,309.21 C375.721667,313.935883 378.730736,318.917565 381.34,324.11 C381.58,324.58 381.81,325.04 382.03,325.5 C384.416072,330.377008 386.464228,335.412199 388.16,340.57 L388.28,340.96 C388.34,341.13 388.39,341.3 388.45,341.46 C389.31,344.24 390,346.75 390.52,348.89 Z"
          id="Path" fill="#20294C" fill-rule="nonzero"></path>
        <path
          d="M378.57,349.17 C377.82,347.5 377.02,345.71 376.19,343.84 C375.19,341.58 374.19,339.19 373.09,336.74 C370.77,331.35 368.35,325.62 366.09,320.07 C359.29,303.82 353.39,289.12 353.39,289.12"
          id="Path" stroke="#FFFFFF" stroke-width="1.22" opacity="0.45" style="mix-blend-mode: overlay;"
          stroke-linecap="round" stroke-linejoin="round"></path>
        <polyline id="Path" stroke="#FFFFFF" stroke-width="1.22" opacity="0.45" style="mix-blend-mode: overlay;"
                  stroke-linecap="round" stroke-linejoin="round"
                  points="354.75 315.77 366.03 320.07 372.29 309.2"></polyline>
        <polyline id="Path" stroke="#FFFFFF" stroke-width="1.22" opacity="0.45" style="mix-blend-mode: overlay;"
                  stroke-linecap="round" stroke-linejoin="round"
                  points="359.01 334.01 373.09 336.74 382 325.49"></polyline>
        <polyline id="Path" stroke="#FFFFFF" stroke-width="1.22" opacity="0.45" style="mix-blend-mode: overlay;"
                  stroke-linecap="round" stroke-linejoin="round"
                  points="388.13 340.56 387.66 341.09 380.49 349.17"></polyline>
        <path
          d="M529,59.61 C533.516547,48.8640925 544.12549,41.9552064 555.78,42.17 C576.17,42.17 581.78,65.37 581.78,65.37 C581.78,65.37 583.19,59.77 594.55,59.61 C605.91,59.45 609.34,72.69 609.34,72.69 C609.34,72.69 620.08,67.24 625.53,84.21 L500.22,84.21 C500.22,84.21 505.82,57.28 529,59.61 Z"
          id="Path" fill="#323B5D" fill-rule="nonzero"></path>
        <path
          d="M119.32,17.59 C114.798099,6.84987515 104.191275,-0.0536699873 92.54,0.16 C72.15,0.16 66.54,23.35 66.54,23.35 C66.54,23.35 65.14,17.75 53.78,17.59 C42.42,17.43 39,30.67 39,30.67 C39,30.67 28.25,25.22 22.8,42.19 L148.12,42.19 C148.12,42.19 142.51,15.26 119.32,17.59 Z"
          id="Path" fill="#20294C" fill-rule="nonzero"></path>
        <path
          d="M260.7,144.27 C260.714166,137.013441 261.366681,129.772195 262.65,122.63 C263.822085,115.637713 266.164935,108.893146 269.58,102.68 C272.850784,96.7628404 277.524226,91.7391477 283.19,88.05 C288.943333,84.2766667 296.276667,82.39 305.19,82.39 C314.103333,82.39 321.436667,84.2766667 327.19,88.05 C332.853397,91.741973 337.526227,96.7650076 340.8,102.68 C344.206379,108.897006 346.548707,115.64007 347.73,122.63 C350.331076,136.939426 350.331076,151.600574 347.73,165.91 C346.554099,172.917145 344.211624,179.677533 340.8,185.91 C337.531551,191.828851 332.85763,196.853059 327.19,200.54 C321.443333,204.32 314.11,206.206667 305.19,206.200018 C296.27,206.193333 288.936667,204.306667 283.19,200.54 C277.519975,196.855909 272.845434,191.831035 269.58,185.91 C266.159648,179.681405 263.816649,172.919504 262.65,165.91 C261.366219,158.767867 260.713701,151.526581 260.7,144.27 L260.7,144.27 Z M286.059778,144.27 C286.059778,147.43 286.2,151.2 286.49,155.6 C286.752738,159.901139 287.517943,164.156751 288.77,168.28 C289.873681,172.091842 291.806472,175.612526 294.43,178.59 C296.97,181.41 300.54,182.82 305.17,182.82 C309.8,182.82 313.23,181.41 315.82,178.59 C318.49316,175.633449 320.459352,172.107981 321.57,168.28 C322.822057,164.156751 323.587262,159.901139 323.85,155.6 C324.13,151.2 324.27,147.43 324.27,144.27 C324.27,141.11 324.13,137.34 323.85,132.94 C323.586352,128.63897 322.821167,124.383463 321.57,120.26 C320.450184,116.450732 318.484634,112.943507 315.82,110 C313.233333,107.18 309.683333,105.77 305.17,105.77 C300.54,105.77 296.97,107.18 294.43,110 C291.808639,112.978995 289.876128,116.49917 288.77,120.31 C287.518833,124.433463 286.753648,128.68897 286.49,132.99 C286.196667,137.356667 286.053333,141.116667 286.059778,144.27 Z"
          id="Shape" fill="#20294C" fill-rule="nonzero"></path>
        <g id="Group" transform="translate(160.000000, 82.000000)">
          <path
            d="M81.98,24.35 L34.47,24.35 L33.96,42.78 C37.4129586,41.7530726 41.0097824,41.2937599 44.61,41.42 C50.3040009,41.3582639 55.9663077,42.2749217 61.35,44.13 C66.2203331,45.8070401 70.6859765,48.4843824 74.46,51.99 C78.1699064,55.5001296 81.0823012,59.7664129 83,64.5 C85.0719435,69.7466785 86.0913043,75.3497652 86,80.99 C86.1099645,87.19438 84.9318154,93.3541251 82.54,99.08 C80.3625987,104.195973 77.1048446,108.780707 72.99,112.52 C68.7910391,116.261408 63.874616,119.109191 58.54,120.89 C52.6851007,122.850542 46.5441321,123.820524 40.37,123.76 C29.9966667,123.76 21.33,121.226667 14.37,116.16 C7.41,111.093333 2.62,103.426667 -2.84217094e-14,93.16 L26.54,87.07 C27.0632515,91.0653026 28.9789693,94.7480133 31.95,97.47 C34.9683069,100.164176 38.9061336,101.596113 42.95,101.47 C48.3633333,101.47 52.6766667,99.7766667 55.89,96.39 C59.1391708,92.9165901 60.8733086,88.2934217 60.71,83.54 C60.8475868,80.1315481 59.9967565,76.7560094 58.26,73.82 C56.6361287,71.3036711 54.4307526,69.214909 51.83,67.73 C49.0774932,66.1737195 46.0710338,65.1173959 42.95,64.61 C39.7139952,64.0443001 36.4350789,63.7599043 33.15,63.76 C28.9228226,63.7686655 24.7052823,64.1636414 20.55,64.94 C16.3908759,65.7155909 12.2934654,66.791746 8.29,68.16 L9.65,2.05 L82.01,2.05 L81.98,24.35 Z"
            id="Path" fill="#20294C" fill-rule="nonzero"></path>
          <path
            d="M100.24,61.88 C100.254166,54.6234408 100.906681,47.3821947 102.19,40.24 C103.362085,33.2477132 105.704935,26.5031462 109.12,20.29 C112.390784,14.3728404 117.064226,9.34914767 122.73,5.66 C128.483333,1.88666667 135.816667,1.00897068e-12 144.73,1.00897068e-12 C153.643333,1.00897068e-12 160.976667,1.88666667 166.73,5.66 C172.393397,9.35197299 177.066227,14.3750076 180.34,20.29 C183.746379,26.5070056 186.088707,33.2500697 187.27,40.24 C189.871076,54.5494255 189.871076,69.2105745 187.27,83.52 C186.094099,90.5271451 183.751624,97.2875328 180.34,103.52 C177.071551,109.438851 172.39763,114.463059 166.73,118.15 C160.983333,121.916667 153.65,123.803333 144.73,123.810018 C135.81,123.816667 128.476667,121.93 122.73,118.15 C117.059975,114.465909 112.385434,109.441035 109.12,103.52 C105.699648,97.2914048 103.356649,90.5295035 102.19,83.52 C100.906219,76.3778674 100.253701,69.1365806 100.24,61.88 L100.24,61.88 Z M125.599778,61.88 C125.599778,65.04 125.74,68.81 126.03,73.21 C126.292738,77.5111389 127.057943,81.7667513 128.31,85.89 C129.413681,89.7018416 131.346472,93.2225262 133.97,96.2 C136.51,99.02 140.08,100.43 144.71,100.43 C149.34,100.43 152.77,99.02 155.36,96.2 C158.03316,93.2434493 159.999352,89.7179812 161.11,85.89 C162.362057,81.7667513 163.127262,77.5111389 163.39,73.21 C163.67,68.81 163.81,65.04 163.81,61.88 C163.81,58.72 163.67,54.95 163.39,50.55 C163.126352,46.2489703 162.361167,41.9934632 161.11,37.87 C159.990184,34.0607318 158.024634,30.5535073 155.36,27.61 C152.773333,24.79 149.223333,23.38 144.71,23.38 C140.08,23.38 136.51,24.79 133.97,27.61 C131.348639,30.5889951 129.416128,34.1091703 128.31,37.92 C127.058833,42.0434632 126.293648,46.2989703 126.03,50.6 C125.736667,54.9666667 125.593333,58.7266667 125.599778,61.88 Z"
            id="Shape" fill="#20294C" fill-rule="nonzero"></path>
          <path
            d="M200.33,61.88 C200.344166,54.6234408 200.996681,47.3821947 202.28,40.24 C203.452085,33.2477132 205.794935,26.5031462 209.21,20.29 C212.480784,14.3728404 217.154226,9.34914767 222.82,5.66 C228.573333,1.88666667 235.906667,1.00897068e-12 244.82,1.00897068e-12 C253.733333,1.00897068e-12 261.066667,1.88666667 266.82,5.66 C272.485774,9.34914767 277.159216,14.3728404 280.43,20.29 C283.844012,26.5045258 286.189979,33.2483363 287.37,40.24 C289.956736,54.5507147 289.956736,69.2092853 287.37,83.52 C286.195393,90.5288805 283.849277,97.2900199 280.43,103.52 C277.164566,109.441035 272.490025,114.465909 266.82,118.15 C261.073333,121.916667 253.74,123.803333 244.82,123.810018 C235.9,123.816667 228.566667,121.93 222.82,118.15 C217.149975,114.465909 212.475434,109.441035 209.21,103.52 C205.789648,97.2914048 203.446649,90.5295035 202.28,83.52 C200.996219,76.3778674 200.343701,69.1365806 200.33,61.88 L200.33,61.88 Z M225.7,61.88 C225.7,65.04 225.84,68.81 226.12,73.21 C226.382738,77.5111389 227.147943,81.7667513 228.4,85.89 C229.502934,89.7042507 231.439604,93.2257794 234.07,96.2 C236.603333,99.02 240.18,100.43 244.8,100.43 C249.306667,100.43 252.856667,99.02 255.45,96.2 C258.12689,93.2461247 260.093589,89.7197488 261.2,85.89 C262.467538,81.7679997 263.252783,77.5129114 263.54,73.21 C263.82,68.81 263.96,65.04 263.96,61.88 C263.96,58.72 263.82,54.95 263.54,50.55 C263.268155,46.2491719 262.499714,41.9942256 261.25,37.87 C260.119676,34.0544423 258.136318,30.5459512 255.45,27.61 C252.856667,24.79 249.306667,23.38 244.8,23.38 C240.18,23.38 236.603333,24.79 234.07,27.61 C231.441791,30.5857602 229.505406,34.106772 228.4,37.92 C227.148833,42.0434632 226.383648,46.2989703 226.12,50.6 C225.84,54.9666667 225.7,58.7266667 225.7,61.88 Z"
            id="Shape" fill="#20294C" fill-rule="nonzero"></path>
          <text id="Internal-Server-Prob" font-family="AvenirNext-Medium, Avenir Next" font-size="16" font-weight="400"
                fill="#44435E">
            <tspan x="58.064" y="151">Internal Server Problem</tspan>
          </text>
        </g>
      </g>
    </g>
  </g>
</svg>
