<svg xmlns="http://www.w3.org/2000/svg" width="687" height="497" viewBox="0 0 687 497">
    <g fill="none" fill-rule="evenodd">
        <g fill="#E9F4F0">
            <path d="M284.475 193.714h26.822v-9.989h-26.822zM311.298 183.725h26.824v-9.989h-26.824zM325.275 193.714h26.823v-9.989h-26.823zM341.629 133.686h26.824v-9.989h-26.824zM327.652 123.697h26.824v-9.99h-26.824zM345.393 98.233h26.823v-9.99h-26.823zM313.675 113.707h26.823v-9.988h-26.823zM292.942 23.62h26.824v-9.99h-26.824zM266.119 33.607h26.823V23.62h-26.823zM364.09 45.443h26.824v-9.989h-26.823z"/>
            <path d="M350.114 35.454h26.824v-9.988h-26.824zM367.854 9.99h26.824V.001h-26.824zM370.468 90.964h26.823v-8.797h-26.823zM478.94 257.737h26.824v-9.989h-26.823zM442.71 235.366h26.824v-8.799H442.71zM394.406 126.77h26.824v-8.797h-26.824z"/>
            <path d="M383.88 133.642h26.823v-8.799H383.88zM449.741 166.543h26.824v-8.798h-26.824zM476.565 157.745h26.824v-8.797h-26.824zM490.542 166.543h26.823v-8.798h-26.823zM329.661 212.307h26.824v-8.797H329.66zM510.24 183.026h26.824v-8.797h-26.823zM492.304 141.935h26.823v-8.798h-26.823zM484.015 116.222h26.824v-8.798h-26.824zM565.095 185.513h26.823v-8.797h-26.823zM578.788 169.702h26.824v-8.797h-26.824zM540.08 209.97h26.824v-8.797H540.08zM586.902 194.311h26.824v-8.798h-26.824zM624.104 207.909h26.823v-8.798h-26.823zM572.546 143.989h26.823v-8.797h-26.823z"/>
            <path d="M470.038 107.424h26.824v-8.798h-26.824zM487.778 84.996h26.824v-8.798h-26.824zM456.062 98.626h26.823v-8.798h-26.823z"/>
        </g>
        <path fill="#D8EEEB" d="M615.924 431.014L153.493 42.974 119.099 55.31l-.642.23-34.393 12.336L33 458.949z"/>
        <path fill="#5CA79C" d="M82.167 69.243l71.632-25.692-42.887-8.48z"/>
        <path fill="#5CA79C" d="M109.771 28.266l2.87 7.883-2.375.852-2.87-7.883z"/>
        <path fill="#E9F4F0" d="M548.472 450.795c-10.357-12.5-56.11-17.274-95.169-19.51-120.203-6.878-243.003-8.9-364.716-6.006-10.777.257-21.938.59-31.33 2.334-13.895 2.583-21.15 7.688-27.548 12.472-16.651 12.452-32.461 27.857-7.34 38.688 15.844 6.832 43.262 9.403 68.897 11.233 76.705 5.476 156.137 8.024 233.91 4.508 77.774-3.517 154.024-13.383 212.463-30.507 11.95-3.502 23.445-9.657 12.277-13.423l-1.444.211z"/>
        <path fill="#D8ECE5" d="M615.414 444.713c-7.342-8.863-39.78-12.247-67.474-13.832-85.224-4.877-172.29-6.31-258.584-4.259-7.641.182-15.554.418-22.213 1.655-9.851 1.83-14.995 5.45-19.532 8.843-11.805 8.828-23.015 19.75-5.204 27.43 11.233 4.843 30.673 6.666 48.849 7.964 54.383 3.882 110.7 5.689 165.842 3.195 55.141-2.493 109.202-9.488 150.636-21.629 8.472-2.482 16.623-6.847 8.704-9.517l-1.024.15z"/>
        <g>
            <path fill="#F3E4BD" d="M325.66 240.423s-7.918 2.308-15.184-.916l.77-2.888s-11.068 4.183-11.237-16.752c-.169-20.934 6.06-21.588 13.395-23.075 7.337-1.485 17.656 1.21 17.505 12.316 0 0 6.463-5.425 7.108 1.602.645 7.026-4.842 8.908-6.549 7.987 0 0-1.512 9.478-4.5 11.892l-1.309 9.834z"/>
            <path fill="#5CA79C" d="M311.018 318.115s34.217-1.955 39.2-2.477c0 0-1.013-15.798-.587-33.124.425-16.866-.473-35.48-5.661-43.171a21.29 21.29 0 0 0-4.107-1.196c-.725-.139-1.3-.218-1.634-.264h-.034c-.126.011-.242.011-.368.022-2.532.127-5.845.346-9.423.667-2.162.196-4.429.437-6.66.724l-2.13.943-1.851-.379c-3.325.54-6.407 1.196-8.824 2.012-2.382.816-4.096 1.77-4.729 2.898-3.405 6.093 6.094 68.574 6.808 73.345"/>
            <path fill="#F3E4BD" d="M302.83 301.209c2.61 1.597 9.169 2.288 9.169 2.288 22.365 2.965 39.507-6.243 39.507-6.243s1-5.863 1.933-13.9c1.265-10.808 2.404-25.535.805-35.194-4.337-7.3-11.09-9.415-14.38-10.013-3.475 4.921-3.302 15.935-3.302 15.935-.404 2.804-.288 16.796-.184 25.512.057 4.14.114 7.093.114 7.093-8.547 2.77-20.213 9.153-20.213 9.153s0-2.68-2.416-3.668c-2.416-.99-13.645 7.438-11.033 9.037"/>
            <path fill="#5CA79C" d="M336.17 279.548l.207.045 13.253 2.922 3.808.838 2.21.484c4.498-18.062 2.542-29.03-1.404-35.676-2.922-4.92-6.949-7.496-10.274-8.819-1.599-.644-3.037-1-4.107-1.195-.725-.138-1.3-.218-1.634-.264 0 0-.39 0-.402.023-6.684 6.99-1.657 41.642-1.657 41.642"/>
            <path fill="#E9F4F0" d="M353.747 292.075c-.634-.399-19.97-5.102-19.97-5.102l2.396-7.431 20.52 3.31-2.946 9.223z"/>
            <path fill="#82685A" d="M286.988 446.592h-18.596s11.205-2.708 14.572-3.505h3.168l.856 3.505zM340.437 444.251h-18.608l.927-3.799h1.83l.762.176c2.488.563 15.089 3.623 15.089 3.623"/>
            <path fill="#6A5F7A" d="M304.407 218.974c.11.604-.157 1.16-.596 1.24-.44.08-.886-.347-.995-.952-.11-.605.156-1.16.596-1.24.44-.08.886.345.995.952M318.498 216.65c.105.579-.151 1.109-.57 1.185-.42.076-.846-.33-.951-.91-.105-.578.15-1.108.57-1.184.42-.076.846.331.95.91"/>
            <path fill="#F69C85" d="M310.474 218.046s-2.341 4.276-1.13 4.334c1.214.057 1.63-1.042 1.63-1.042l-.5-3.292z"/>
            <path fill="#EEBEB5" d="M307.355 221.302c.198.968-1.23 2.08-3.19 2.479-1.96.402-3.71-.06-3.909-1.028-.197-.97 1.23-2.08 3.19-2.48 1.96-.402 3.71.059 3.91 1.029M323.194 218.667c.2.969-1.228 2.079-3.189 2.48-1.96.4-3.71-.06-3.909-1.03-.198-.968 1.23-2.079 3.19-2.48 1.96-.4 3.71.061 3.908 1.03"/>
            <path fill="#9E6A36" d="M300.657 215.245s2.507-3.177 4.52-1.736l-4.52 1.736zM315.528 212.648s1.584-2.368 5.342-.543l-5.342.543z"/>
            <path fill="#FEFEFE" d="M304.697 225.092s2.74 3.026 6.103 2.625c3.364-.402 6.314-2.711 7.288-4.938 0 0-6.002 3.085-13.39 2.313"/>
            <path fill="#F3E4BD" d="M295.39 249.919c-9.263 8.482-1.012 47.335-1.012 47.335s13.453 11.893 37.977-4.364c0 0 6.554-.69 9.165-2.292 2.612-1.602-8.61-10.027-11.028-9.038-2.417.988-2.415 3.674-2.415 3.674s-10.146 4.225-18.685 1.459c0 0 .518-28.474-.076-32.61 0 0 .622-17.485-13.925-4.164"/>
            <path fill="#5CA79C" d="M310.598 283.513l-.207.046-13.254 2.92-3.807.839-2.209.482c-4.499-18.06-2.543-29.03 1.403-35.674 2.922-4.921 6.949-7.496 10.274-8.818 1.599-.644 3.037-1 4.107-1.195.724-.139 1.3-.22 1.634-.266 0 0 .39 0 .402.024 6.684 6.99 1.657 41.642 1.657 41.642"/>
            <path fill="#E9F4F0" d="M292.526 292.835c.633-.398 18.157-5.937 18.157-5.937l-.583-6.595-19.837 3.53 2.263 9.002zM308.938 241.872l8.756 4.415 1.92-6.047-1.852-.38-6.786-1.38zM319.615 240.24l4.05 5.173 4.739-6.84L326 237.41l-4.256 1.886z"/>
            <path fill="#D3BCB7" d="M319.615 240.24l6.145 45.8s-7.089-44.363-6.145-45.8"/>
            <path fill="#134B57" d="M311.018 318.115c-3.936 6.793-12.963 57.93-12.963 57.93-14.298 20.847-14.366 66.536-14.366 66.536l2.67.506s16.955-42.078 21.017-52.177c0 0 21.05-53.156 21.073-53.23-1.963 11.101-.765 48.443-.765 48.443-15.027 18.724-5.536 54.46-5.536 54.46h3.609c16.96-66.367 24.46-124.945 24.46-124.945-3.281-.233-39.2 2.477-39.2 2.477"/>
            <path fill="#82685A" d="M311.018 318.115l-.335-2.227 39.4-2.65.134 2.4z"/>
            <path fill="#D5EBF4" d="M328.287 317.015l-.306-2.24 4.197-.435.25 2.438-4.141.237zm4.704-3.291l-5.926.616.431 3.162 5.849-.336-.354-3.442z"/>
            <path fill="#D3BCB7" d="M328.733 304.085l1.112 9.153s-1.647-6.14-1.112-9.153"/>
            <path fill="#134B57" d="M306.01 199.27c.968 1.226 6.636 1.734 9.375 1.035 2.738-.698 6.13-1.553 7.436 2.816 1.308 4.369 8.16 6.632 8.16 6.632.866-10.844-9.038-14.144-16.307-13.175-3.223.428-6.22.721-8.664 2.691"/>
            <path fill="#EE8036" d="M67.298 356.998h341.057v-5.474H67.298z"/>
            <path fill="#EE8036" d="M126.592 451.65l-28.795-96.335 3.63-.957 29.115 97.291z"/>
            <path fill="#EE8036" d="M73.488 452.475l28.795-96.334-3.63-.956-29.116 97.29zM403.35 451.65l-28.795-96.335 3.63-.957 29.114 97.291z"/>
            <path fill="#EE8036" d="M350.245 452.475l28.795-96.334-3.63-.956-29.115 97.29z"/>
            <path fill="#FEFEFE" d="M176.897 293.478v38.195c0 2.98 2.4 5.403 5.38 5.415l65.433.362c2.993.013 5.445-2.424 5.445-5.416v-38.452a5.416 5.416 0 0 0-5.419-5.415l-65.42-.104c-2.993-.013-5.42 2.424-5.42 5.415"/>
            <path fill="#FEFEFE" d="M210.798 334.979l5.462 14.914h-17.787v1.655l33.896-.091-12.018-16.987z"/>
            <path fill="#6CB7AE" d="M176.897 293.478v34.236h76.258v-34.132a5.416 5.416 0 0 0-5.419-5.415l-65.42-.104c-2.993-.013-5.42 2.424-5.42 5.415"/>
            <path fill="#E9F4F0" d="M180.81 327.715h68.264v-37.071h-68.265z"/>
            <path fill="#FEFEFE" d="M219.692 315.968h22.321v-19.123h-22.321z"/>
            <path fill="#6CB7AE" d="M219.692 302.334h22.321v-5.488h-22.321z"/>
            <path fill="#FEFEFE" d="M202.501 322.735h19.99v-19.121H202.5z"/>
            <path fill="#6CB7AE" d="M202.501 307.477h19.99v-3.863H202.5z"/>
            <path fill="#7C7D7D" d="M184.305 324.362h14.323V296.15h-14.323z"/>
            <path fill="#737575" d="M184.305 302.14h14.323v-5.99h-14.323z"/>
            <path fill="#8D8F8E" d="M186.703 304.399h10.584v-.804h-10.584zM187.575 305.847h8.556v-.804h-8.556zM187.739 307.295h7.193v-.803h-7.193zM186.567 319.066h10.583v-.804h-10.583zM187.44 320.514h8.555v-.803h-8.556zM187.602 321.963h7.194v-.804h-7.194zM187.739 308.744h9.548v-.803h-9.548zM187.93 310.193h9.357v-.804h-9.358zM187.739 311.641h9.548v-.804h-9.548zM186.43 313.09h10.857v-.805H186.43zM187.412 314.538h8.697v-.803h-8.697zM186.43 315.986h9.701v-.804h-9.7zM188.202 317.435h9.085v-.803h-9.085z"/>
            <path fill="#134B57" d="M159.472 359.946s-.559 21.156 9.105 23.455c9.664 2.3 47.496 6.323 47.496 6.323s-8.46 4.103-6.912 55.862l6.36-.31s17.875-52.72 17.966-59.5c.093-6.782-48.466-20.312-48.466-20.312l.348-6.934-25.897 1.416z"/>
            <path fill="#302D48" d="M165.066 445.016l-1.507 7.43 13.926-.727s-1.648-6.033-12.419-6.703"/>
            <path fill="#F8EECD" d="M240.827 317.747c-4.54 2.003-8.619 1.246-10.946.51 0 0 3.963-2.614 3.927-3.764-.02-.626-5.963 3.015-5.963 3.015a46.514 46.514 0 0 0-5.624 3.403l4.02 4.046c.725-1.352.999-2.095.999-2.095s4.107 2.57 6.209 2.16c4.411-.86 9.682-8.291 7.378-7.275"/>
            <path fill="#6CB7AE" d="M226.24 324.957c-9.487 11.68-22.454 20.425-28.79 23.75-2.282 1.197-5.076-.03-5.75-2.517-3.453-12.76-12.21-47.702-6.25-53.62 11.469-11.409 13.931 10.029 13.931 10.029.625 3.37 2.327 31.135 2.327 31.135 1.327-1.805 21.647-13.793 21.647-13.793l2.886 5.016z"/>
            <path fill="#134B57" d="M144.65 359.946s-.264 19.847 8.517 24.488c4.531 2.396 10.004-.93 8.48.548-8.97 8.701-.44 46.429 1.912 61.074l5.663-.47s9.621-63.384 9.714-70.165c.092-6.782-14.322-9.905-14.322-9.905l.117-5.57h-20.08z"/>
            <path fill="#6CB7AE" d="M185.373 358.53s-37.16 2.356-40.727 1.414c0 0-8.497-57.278 4.917-70.592 0 0 9.065-2.84 15.76-3.576l11.949.436c3.014.54 10.644 1.922 13.899 3.026 3.003 1.022 1.472 31.433-6.915 61.612 0 0 6.661 3.932 1.117 7.68"/>
            <path fill="#302D48" d="M209.688 444.86l1.177 6.656 18.19 1.09s-8.576-7.878-19.367-7.746"/>
            <path fill="#6CB7AE" d="M136.382 339.005l-1.15 33.916 5.128-1.87 7.938-36.982s9.499-34.944 10.154-38.301c0 0 .948-12.073-14.94-4.27-9.254 4.546-7.13 47.507-7.13 47.507"/>
            <path fill="#6A5F7A" d="M186.807 261.87c.004.563.339 1.016.747 1.012.408-.003.735-.462.731-1.024-.004-.561-.339-1.015-.747-1.011-.409.003-.736.461-.731 1.024M173.765 262.184c.005.536.324.97.714.967.39-.004.703-.442.698-.978-.005-.537-.323-.97-.713-.966-.39.003-.703.44-.699.977"/>
            <path fill="#F69C85" d="M183.4 265.68c-.12.895 1.248 1.82 3.06 2.066 1.81.246 3.378-.28 3.5-1.176.121-.894-1.248-1.82-3.06-2.067-1.811-.245-3.377.281-3.5 1.177M168.803 264.242c-.122.895 1.248 1.82 3.059 2.067 1.81.246 3.378-.28 3.5-1.177.121-.894-1.249-1.82-3.06-2.066-1.81-.246-3.377.281-3.5 1.176"/>
            <path fill="#664E3C" d="M189.136 259.75s-2.479-2.742-4.223-1.306l4.223 1.307zM175.424 258.29s-1.588-2.062-4.902-.17l4.902.17z"/>
            <path fill="#F69C85" d="M180.359 262.497s2.395 3.756 1.293 3.881c-1.101.127-1.547-.85-1.547-.85l.254-3.03z"/>
            <path fill="#FEFEFE" d="M186.055 268.972s-2.314 2.926-5.404 2.764c-3.09-.16-5.92-2.086-6.943-4.055 0 0 5.658 2.446 12.347 1.291"/>
            <path fill="#6CB7AE" d="M190.077 266.962s-1.956 1.23-5.164.367c-3.21-.862-8.846-.876-12.105.831-3.26 1.708-11.546-3.383-11.546-3.383s1.174 8.678 4.583 13.958c3.41 5.282 19.911 3.344 21.637-.967 1.726-4.312 2.595-10.806 2.595-10.806"/>
            <path fill="#F8EECD" d="M178.813 279.742l-1.542 6.47c-6.421 3.382-11.948-.435-11.948-.435l.773-10.435c-2.88-2.027-4.38-8.639-4.38-8.639-.844.808-3.663 1.118-3.505-5.332.158-6.438 3.433-3.448 3.433-3.448-1.707-11.15 7.972-15.117 14.751-14.214 3.006.398 5.8.673 8.082 2.51 2.858 2.29 4.908 7.068 5.527 17.707 1.125 19.094-11.191 15.816-11.191 15.816"/>
            <path fill="#6CB7AE" d="M188.105 252.019c-.904 1.143-1.733 1.39-4.712 12.759-2.023 7.718-10.966 9.153-14.252 8.638-9.85-1.546-7.953-17.419-7.953-17.419-.81-10.114 8.429-13.19 15.207-12.288 3.006.399 8.66-.377 11.71 8.31"/>
            <path fill="#6CB7AE" d="M184.477 246.22s-4.372 1.727-12.916 1.314c0 0-5.393.065-6.752-.995 0 0 1.564-1.679 4.412-2.438 4.375-1.168 11.063-1.388 15.256 2.118M178.012 283.102l.723 3.911s-5.027 3.45-15.265-.754l2.089-3.655 12.453.498zM178.813 279.742s7.483-2.875 9.292-10.03c1.81-7.156 2.005-1.905 2.005-1.905s-.112 7.613-2.005 10.009c-1.893 2.396-10.262 4.809-9.292 1.926"/>
            <path fill="#F8EECD" d="M188.105 258.89s3.086-2.928 3.757.86c.671 3.79-1.88 7.848-3.577 7.798-1.696-.051-.18-8.658-.18-8.658"/>
            <path fill="#D8ECE5" d="M206.758 386.248c-.012-.196-.025-.393-.05-.577-.024-.431-.06-.85-.11-1.268-.066-.719-.162-1.409-.255-2.1-.042-.313-.098-.624-.154-.935-.055-.303-.102-.597-.17-.893-.061-.318-.123-.64-.198-.96l-.22-.923a19.552 19.552 0 0 0-.235-.898 69.167 69.167 0 0 0-.259-.875 15.87 15.87 0 0 0-.27-.836 17.436 17.436 0 0 0-.308-.875 21.531 21.531 0 0 0-.555-1.428 32.27 32.27 0 0 0-1.429-2.917c-.123-.221-.246-.43-.381-.652-.382-.64-.764-1.23-1.17-1.81-.124-.172-.247-.331-.37-.492a27.117 27.117 0 0 0-1.872-2.264c-.136-.136-.27-.283-.407-.407a6.797 6.797 0 0 0-.431-.43c-.43-.432-.862-.825-1.293-1.183a27.61 27.61 0 0 0-1.282-1.02 24.364 24.364 0 0 0-4.557-2.697c-.246-.11-.48-.21-.702-.308-.172-.074-.345-.135-.505-.196a.277.277 0 0 0-.11-.037c-.173-.074-.321-.124-.469-.174a2.439 2.439 0 0 1-1.635-1.9c-1.319-7.742-8.007-43.6-20.583-55.314-2.968-2.758-23.542-1.908-25.254-1.54-9.793 2.118-29.365 54.607-29.365 72.148 0 16.137 16.086 21.575 18.66 22.342.223.067.452.098.685.098h67.002c4.643 0 8.388-3.815 8.265-8.407 0-.086 0-.184-.013-.272"/>
            <path fill="#C3DBDB" d="M135.234 459.715l22.784-8.772-.03-56.016h4.233l.03 55.479 24.178 9.309z"/>
            <path fill="#DFEFEF" d="M176.39 440.353h-32.213a1.438 1.438 0 1 1 0-2.875h32.213a1.438 1.438 0 1 1 0 2.875"/>
            <path fill="#F7A56D" d="M239.703 331.09l-1.15 10.156h36.096V331.09z"/>
            <path fill="#EE8036" d="M275.51 341.246l1.152 10.157h-36.097v-10.157z"/>
            <path fill="#FEFEFE" d="M238.679 340.132l13.152-.489v-7.163h-12.285zM276.4 350.152l-22.172-.245v-7.163l21.305-.245z"/>
            <path fill="#E2E3D9" d="M254.875 347.538s18.639 1.7 21.01.778l-21.01-.778zM254.875 345.799s18.639 1.701 21.01.778l-21.01-.778zM254.875 344.06s18.639 1.702 21.01.779l-21.01-.778zM239.112 336.935s10.763 1.7 12.133.779l-12.133-.78zM239.112 335.197s10.763 1.7 12.133.779l-12.133-.78zM239.112 333.459s10.763 1.7 12.133.778l-12.133-.778z"/>
            <path fill="#EE8036" d="M369.587 436.246l-.16-1.149a47.073 47.073 0 0 1 9.57-35.503l10.468-13.362 11.06-13.218 13.747-32.25a76.659 76.659 0 0 1 54.87-44.976l10.66-2.224a75.592 75.592 0 0 1 45.499 4.641 16.558 16.558 0 0 1 9.738 12.404l11.542 67.588.215 36.048c-3.972 19.929-21.546 34.231-41.879 34.082l-122.56-.897a12.966 12.966 0 0 1-12.77-11.184"/>
            <path fill="#6CB7AE" d="M444.592 298.895s-19.337.8-7.195-16.101c12.141-16.902 9.67-9.327 11.827-15.203 3.993-10.878 23.548-18.372 31.437-3.803 8.357 15.43 15.946 41.088-.15 38.648-16.097-2.44-35.92-3.541-35.92-3.541"/>
            <path fill="#D8ECE5" d="M435.099 358.47s69.693 5.93 77.772 5.124c0 0-64.786-9.17-77.772-5.123M505.6 340.2l-65.218 10.206s41.249-1.572 65.218-10.206M522.298 380.795s-62.908 11.081-68.979 11.788c-6.072.706-53.113 0-53.113 0s66.434-22.846 122.092-11.788"/>
            <path fill="#F8EECD" d="M452.528 266.107s-4.34 14.469 3.591 23.504c7.932 9.037 15.238 1.71 15.238 1.71s5.496-3.431 6.306-20.828c1.11-23.798-25.135-4.386-25.135-4.386"/>
            <path fill="#F8EECD" d="M475.273 280.002s5.999 1.904 7.243-4.625c0 0 .04-6.157-6.342-1.055l-.901 5.68z"/>
            <path fill="#FEFEFE" d="M469.347 282.886s-9.059.8-10.717.342c0 0-.423 3.916 5.998 3.045 0 0 3.303-.387 4.72-3.387"/>
            <path fill="#F48F9A" d="M469.347 282.886s-4.335-1.209-6.021.41c0 0-1.614-1.411-4.696-.068 0 0 2.835.96 10.717-.342"/>
            <path fill="#F48F9A" d="M469.347 282.886s-7.405 6.516-10.717.342c0 0-.26 3.32 4.401 3.208 4.661-.113 5.64-2.35 6.316-3.55"/>
            <path fill="#F69C85" d="M463.985 278.212s-2.13 2.795-1.273 2.967c.858.171 1.273-.567 1.273-.567v-2.4z"/>
            <path fill="#EEBEB5" d="M468.394 281.18c0 .89 1.464 1.614 3.268 1.614 1.804 0 3.267-.723 3.267-1.615s-1.463-1.614-3.267-1.614c-1.804 0-3.268.722-3.268 1.614M452.726 281.324c0 .891 1.463 1.613 3.266 1.613 1.805 0 3.268-.722 3.268-1.613 0-.893-1.463-1.616-3.268-1.616-1.803 0-3.266.723-3.266 1.616"/>
            <path fill="#FEFEFE" d="M485.196 303.204c-2.768-3.317-8.424-2.52-11.246-1.853-1.023.238-1.68.464-1.68.464l-.324-2.799-.873-7.698h-8.23l.032.248.883 6.944v.01l.345 2.756s-.775-.323-1.96-.688c-3.653-1.153-11.371.504-12.482 6.22-1.25 6.374 7.462 55.585 7.462 55.585l24.443-4.952s9.836-46.788 3.63-54.237"/>
            <path fill="#F8EECD" d="M472.27 301.815s-1.37 1.109-3.383 1.238l-1.11-2.66-1.164 2.358c-.797-.27-1.647-.732-2.51-1.475l-.345-2.756v-.01l-.882-6.944c.15-.087.312-.162.484-.248h7.713l.873 7.698.324 2.799z"/>
            <path fill="#6CB7AE" d="M471.651 258.732s-8.345 9.047-18.166 8.856c0 0-5.32-.193-6.616-1.184 0 0 5.701-2.476 9.633-8.923 2.839-4.652 13.577-6.58 15.15 1.25"/>
            <path fill="#134B57" d="M476.498 358.47s6.546 25.06-2.504 27.213c-9.05 2.153-44.476 5.921-44.476 5.921s8.725 15.43 5.065 52.577h-.974s-16.47-40.484-19.81-53.178a4.693 4.693 0 0 1 1.672-4.904c21.95-17.016 41.973-17.213 41.973-17.213l-.326-6.493 19.38-3.922z"/>
            <path fill="#134B57" d="M481.57 357.445s17.287 25.189 8.237 27.34c-9.048 2.154-37.98 5.853-37.98 5.853s11.06 15.179 15.521 53.899l-.803.096s-32.909-52.422-32.995-58.77c-.086-6.35 37.694-16.977 37.694-16.977l-3.02-8.74 13.346-2.701z"/>
            <path fill="#FEFEFE" d="M442.574 340.386c.793 1.122 6.11 6.958 6.11 6.958 7.628-10.142 4.733-45.17 4.733-45.17-12.543 7.771-10.804 36.004-10.923 37.93a.427.427 0 0 0 .08.282M488.762 342.035c.594.065 1.045.109 1.292.109 0 0-1.389-1.821-3.307-4.674-6.883-10.238-20.575-33.729-1.13-33.664 0 0 10.998 16.923 14.477 32.696.562 2.52.916 4.996 1.014 7.374l-12.346-1.84z"/>
            <path fill="#F7CC73" d="M453.197 273.284s3.188-2.635 4.887-.764l-4.887.764zM466.563 272.089s1.776-2.307 5.483-.19l-5.483.19z"/>
            <path fill="#6A5F7A" d="M457.21 278.212c0 .705-.346 1.278-.77 1.278-.428 0-.773-.573-.773-1.278 0-.707.345-1.28.772-1.28.425 0 .771.573.771 1.28M469.35 277.48c0 .707-.345 1.279-.772 1.279-.425 0-.771-.572-.771-1.279 0-.706.346-1.278.771-1.278.427 0 .772.572.772 1.278"/>
            <path fill="#6CB7AE" d="M470.724 258.167s1.182 11.555 7.736 12.838c6.553 1.284.434-20.54-7.736-12.838"/>
            <path fill="#FEFEFE" d="M502.336 336.34v7.72l-1.228-.183-12.346-1.842v-.01l-2.725-4.501.71-.054 13.348-.968zM473.95 301.352l-4.073 4.09-.99-2.389-1.11-2.66 4.169-1.377.324-.109zM467.776 300.393l-1.163 2.358-1.12 2.282-3.35-4.445 1.615-2.068v-.01z"/>
            <path fill="#6CB7AE" d="M466.563 325.744h5.056l-1.31 14.022h-7.491l-1.312-14.022z"/>
            <path fill="#6CB7AE" d="M466.563 326.73h-5.898l1.53-2.89h8.736l1.53 2.89z"/>
            <path fill="#F8EECD" d="M500.353 351.348s-20.618-.484-30.313-9.636c-9.697-9.151-3.771-13.845-3.771-13.845s4.503 2.273 5.085 7.655l-.173 3.638s13.057 2.326 17.58 2.864v.012l12.347 1.84c.118 2.649-.109 5.179-.755 7.472M409.976 372.683c-.226 1.615 14.23 0 14.23 0 25.142-16.536 25.142-28.036 25.142-28.036l-7.188-.587c-4.408 5.146-17.895 26.263-17.895 26.263-2.692-1.347-14.29 2.36-14.29 2.36"/>
            <path fill="#FEFEFE" d="M441.049 338.172l-.666 6.402 9.6 4.329 2.857-6.648-1.127-.393z"/>
            <path fill="#B6C7C6" d="M449.224 383.537l10.507-10.136-43.033-.371-16.916 10.507z"/>
            <path fill="#C7D9D9" d="M387.7 348.887h49.44l12.084 34.65h-49.442z"/>
            <path fill="#CE806C" d="M434.522 443.93l.576 3.593-15.81.274s5.666-4.127 15.234-3.868M467.484 444.182l.757 3.559-15.776 1.072s5.45-4.408 15.019-4.631"/>
            <path fill="#F7A56D" d="M584.61 410.9l4.785 35.21h23.49l6.959-35.21z"/>
            <path fill="#F7A56D" d="M583.196 410.9l-.978 9.13h39.475l-1.849-9.13z"/>
            <path fill="#89B2AE" d="M599.48 410.32s-14.5-12.896-17.835-37.674c-3.335-24.778-8.41-22.749-8.41-22.749s6.235-6.037 15.37 23.788c9.135 29.825 10.875 36.636 10.875 36.636"/>
            <path fill="#89B2AE" d="M599.48 410.32s-12.766-41.176-8.428-54.947c4.338-13.77 2.696-17.285 2.696-17.285s11.002 57.874 5.732 72.233"/>
            <path fill="#89B2AE" d="M601.415 394.815s-2.977-8.041 5.506-32.602c8.482-24.56 5.654-31.08 5.654-31.08s1.822 45.86-11.16 63.682"/>
            <path fill="#80ADA8" d="M601.582 410.32s-1.957-14.345 7.395-29.704c9.352-15.36 19.14-10.578 19.14-10.578s-12.615.435-14.79 13.91c-2.175 13.476-11.745 26.373-11.745 26.373M600.75 377.828s-4.666-16.715-.697-30.57c3.97-13.856.787-26.294.787-26.294s10.449 36.609-.09 56.864"/>
            <path stroke="#134B57" stroke-width="2" d="M676.403 226.138l-11.231 30.384M686.39 236.952l-31.205 8.756M677.566 256.041l-13.557-29.422"/>
            <path fill="#FEFEFE" d="M9.893 480.535l4.233 4.455.742-.705a1.013 1.013 0 0 0 .04-1.447l-2.825-2.972a1.014 1.014 0 0 0-1.448-.036l-.742.705zM5.696 474.633c.417-.395.432-1.03.039-1.445l-2.825-2.973a1.013 1.013 0 0 0-1.447-.035l-.743.705.92.968 3.313 3.486.743-.706z"/>
        </g>
        <g>
            <path fill="#237684" d="M4.07 364.153s6.838 63.99 9.145 65.634c2.307 1.643-5.55-62.689-9.145-65.634M14.138 333.021s-.694 100.814 3.12 107.91c3.815 7.096-2.08-105.793-3.12-107.91"/>
            <path fill="#6CB7AE" d="M0 376.237s11.79 63.242 14.217 64.693C16.644 442.383 3.814 378.884 0 376.237"/>
            <path fill="#6CB7AE" d="M11.096 333.021s-.693 100.814 3.121 107.91c3.815 7.096-2.08-105.793-3.12-107.91"/>
            <path fill="#237684" d="M22.193 348.543s-8.21 84.667-6.706 89.959c1.505 5.292 9.134-86.43 6.706-89.959"/>
            <path fill="#6CB7AE" d="M28.95 344.663L16.31 440.955s13.84-56.781 12.641-96.292"/>
            <path fill="#6CB7AE" d="M26.886 351.896s-8.21 84.667-6.705 89.959c1.504 5.292 9.133-86.432 6.705-89.96"/>
            <path fill="#6CB7AE" d="M31.882 346.885L19.24 443.177s13.84-56.781 12.642-96.292"/>
            <path fill="#237684" d="M32.77 353.94s-15.53 83.598-14.492 89.005c1.038 5.406 16.604-85.272 14.492-89.005"/>
            <path fill="#D8ECE5" d="M2.534 439.005l3.824 34.965h18.774l5.563-34.965z"/>
            <path fill="#D8ECE5" d="M1.405 439.005l-.783 9.065h31.55l-1.477-9.065z"/>
        </g>
        <g>
            <path fill="#88D5CD" d="M507.966 129.004c0 13.789-11.178 24.967-24.967 24.967-13.789 0-24.966-11.178-24.966-24.967 0-13.788 11.177-24.967 24.966-24.967 13.79 0 24.967 11.179 24.967 24.967"/>
            <path fill="#F0F1F1" d="M503.798 129.004c0 11.487-9.312 20.8-20.8 20.8-11.485 0-20.797-9.313-20.797-20.8 0-11.486 9.312-20.799 20.798-20.799 11.487 0 20.8 9.313 20.8 20.799"/>
            <path fill="#D0D2D3" d="M482.999 149.803c-11.486 0-20.798-9.312-20.798-20.799 0-11.486 9.312-20.799 20.798-20.799v-4.168c-13.789 0-24.966 11.179-24.966 24.967 0 13.789 11.177 24.967 24.966 24.967v-4.168"/>
            <path fill="#FFF" d="M462.2 129.004c0 11.487 9.313 20.8 20.799 20.8v-41.599c-11.486 0-20.798 9.313-20.798 20.799"/>
            <path fill="#773249" d="M484.118 111.47a.966.966 0 0 1-.966.966h-.305a.966.966 0 0 1-.966-.966v-3.833c0-.533.432-.966.966-.966h.305c.534 0 .966.433.966.966v3.833"/>
            <path fill="#6C6E70" d="M465.465 127.884c.534 0 .966.434.966.968v.305a.966.966 0 0 1-.966.967h-3.832a.967.967 0 0 1-.967-.967v-.305c0-.534.433-.968.967-.968h3.832M484.118 111.47a.966.966 0 0 1-.966.966h-.305a.966.966 0 0 1-.966-.966v-3.833c0-.533.432-.966.966-.966h.305c.534 0 .966.433.966.966v3.833M481.88 146.538c0-.534.433-.966.967-.966h.305c.534 0 .966.432.966.966v3.833a.966.966 0 0 1-.966.966h-.305a.966.966 0 0 1-.966-.966v-3.833"/>
            <path fill="#403F41" d="M485.516 130.843a.967.967 0 0 1 0 1.366l-.216.217a.966.966 0 0 1-1.367 0L471.4 119.892a.966.966 0 0 1 0-1.367l.215-.216a.966.966 0 0 1 1.366 0l12.535 12.534"/>
            <path fill="#403F41" d="M482.175 132.426a.965.965 0 0 1-1.366 0l-.216-.217a.965.965 0 0 1 0-1.366l9.26-9.26a.966.966 0 0 1 1.366 0l.216.217a.966.966 0 0 1 0 1.366l-9.26 9.26"/>
        </g>
    </g>
</svg>
